<svg xmlns="http://www.w3.org/2000/svg" viewBox="0 0 180 180" fill="none">
  <rect width="180" height="180" rx="40" fill="url(#bg)"/>
  <svg x="10" y="15" width="160" height="150" viewBox="0 0 600 327">
    <g transform="translate(0,327) scale(0.1,-0.1)" fill="white" stroke="none">
      <path d="M2860 2565 c-36 -9 -77 -17 -91 -19 -15 -3 -40 -11 -57 -20 -39 -20 -52 -21 -26 -1 18 14 17 15 -8 4 -15 -7 -25 -16 -22 -20 3 -5 -3 -9 -13 -9 -10 0 -33 -9 -51 -20 -18 -11 -37 -18 -43 -15 -5 4 -12 0 -15 -9 -3 -9 -12 -12 -21 -9 -11 4 -14 2 -9 -5 4 -6 -5 -19 -21 -29 -15 -10 -31 -22 -35 -28 -4 -5 -8 -6 -8 -2 0 4 -39 -31 -87 -78 -49 -48 -87 -89 -85 -91 1 -2 -7 -13 -18 -24 -11 -11 -20 -26 -20 -34 0 -8 -8 -21 -19 -28 -10 -7 -19 -16 -20 -20 -1 -5 -17 -41 -36 -82 -19 -42 -35 -81 -35 -87 0 -7 -8 -21 -17 -32 -11 -13 -12 -17 -4 -12 11 6 13 4 8 -9 -4 -10 -7 -20 -7 -22 0 -3 -4 -3 -9 0 -4 3 -7 -7 -5 -22 2 -15 -2 -47 -7 -72 -7 -28 -10 -237 -10 -544 0 -428 3 -502 15 -515 18 -17 129 -18 134 -1 2 5 9 7 14 4 7 -4 8 -2 4 4 -4 7 -2 12 3 12 8 0 11 154 11 498 1 407 3 504 15 537 8 22 15 52 15 66 0 26 23 81 31 76 2 -1 1 2 -3 7 -6 8 21 64 44 94 6 6 8 12 4 12 -9 0 54 85 65 86 22 3 23 5 9 14 -13 8 -13 10 1 10 9 0 20 7 23 16 3 8 11 12 16 9 6 -4 10 -3 9 2 -3 13 12 43 22 43 5 0 26 16 45 36 20 19 42 33 50 30 7 -3 16 -1 19 5 4 5 11 6 17 3 7 -4 8 -2 4 5 -6 9 -11 9 -24 -1 -10 -8 -13 -9 -9 -1 12 19 116 63 135 57 15 -5 15 -4 2 6 -13 9 -12 11 5 8 11 -1 30 4 43 10 31 18 69 23 200 29 117 5 163 -2 250 -39 24 -10 40 -13 36 -7 -3 6 3 5 14 -2 12 -7 18 -17 15 -23 -4 -5 -1 -6 6 -1 8 4 25 -2 43 -15 17 -13 28 -16 24 -9 -4 8 9 -4 30 -26 20 -22 33 -33 29 -25 -8 13 -7 13 11 0 10 -8 23 -21 27 -27 4 -7 14 -13 21 -13 15 0 31 -28 27 -45 -2 -5 1 -7 4 -3 13 12 45 -12 45 -32 0 -12 7 -20 18 -21 11 0 13 -2 4 -6 -10 -4 -7 -9 10 -17 15 -8 22 -19 20 -32 -2 -10 -1 -16 3 -12 7 6 35 -14 35 -25 0 -3 8 -22 17 -43 9 -22 16 -45 14 -51 -1 -7 2 -13 7 -13 10 0 32 -66 39 -115 3 -16 7 -83 10 -147 4 -96 2 -123 -12 -152 -10 -20 -15 -45 -12 -55 4 -15 1 -18 -12 -13 -14 5 -14 4 -2 -11 10 -13 10 -17 1 -17 -7 0 -10 -7 -7 -15 4 -8 1 -17 -5 -21 -7 -5 -8 -2 -3 6 5 9 4 11 -4 6 -6 -4 -9 -11 -6 -16 9 -15 -35 -103 -64 -127 -18 -16 -27 -19 -33 -10 -6 9 -8 9 -8 -1 0 -7 7 -15 15 -18 12 -5 10 -10 -10 -26 -14 -11 -25 -25 -25 -31 0 -15 -39 -42 -60 -42 -8 0 -13 -5 -10 -10 3 -6 9 -9 13 -7 5 1 6 -2 2 -8 -9 -14 -21 -13 -39 6 -9 8 -16 11 -16 5 0 -5 5 -13 10 -16 6 -3 10 -11 10 -17 0 -7 -5 -7 -14 1 -11 9 -14 8 -12 -5 0 -9 -5 -19 -13 -22 -9 -3 -11 0 -6 8 5 9 4 11 -4 6 -6 -4 -9 -11 -6 -16 3 -4 -7 -16 -21 -25 -15 -9 -24 -12 -20 -7 3 6 1 14 -5 18 -7 4 -9 3 -6 -3 12 -19 -77 -73 -121 -73 -11 0 -22 -5 -24 -10 -2 -6 -22 -12 -44 -14 -23 -2 -46 -6 -51 -9 -11 -7 -195 -9 -233 -3 -14 2 -35 5 -48 5 -13 1 -21 5 -18 10 3 4 -8 7 -25 5 -21 -3 -28 0 -23 8 5 7 2 9 -8 6 -8 -3 -36 5 -62 18 -55 28 -69 29 -86 9 -7 -8 -16 -12 -21 -9 -5 3 -6 -3 -2 -12 5 -13 3 -15 -7 -9 -9 5 -11 4 -6 -4 4 -6 2 -19 -6 -28 -11 -14 -11 -16 2 -8 11 6 10 3 -2 -12 -10 -11 -18 -24 -18 -29 0 -12 50 -58 50 -46 0 4 4 2 8 -5 7 -11 74 -39 120 -50 12 -3 22 -9 22 -14 0 -5 7 -5 17 -2 9 4 14 2 11 -3 -7 -11 88 -18 232 -18 107 0 157 6 204 24 14 5 26 7 26 4 0 -2 14 3 30 11 17 9 35 13 40 10 6 -3 10 -1 10 5 0 7 7 9 17 6 10 -4 14 -4 10 0 -10 11 51 36 93 39 19 2 42 -2 50 -9 13 -10 13 -9 1 7 -8 10 -21 15 -30 12 -11 -4 -10 -1 4 13 15 15 23 17 34 8 11 -8 13 -8 8 1 -10 16 30 56 45 47 8 -5 9 -2 5 10 -6 14 -4 15 16 5 18 -9 20 -9 10 1 -10 11 -6 18 19 36 17 13 36 21 41 17 6 -3 7 -1 3 5 -3 6 -2 13 4 17 6 4 7 11 4 17 -4 6 -3 8 3 5 12 -7 44 28 35 39 -4 4 0 5 10 1 9 -3 24 1 35 9 17 14 16 14 -5 4 -21 -11 -22 -10 -10 9 7 12 16 21 21 21 4 0 6 4 2 9 -7 12 29 33 40 23 5 -4 5 -1 1 6 -4 7 -12 10 -17 6 -6 -3 -5 3 2 14 7 12 22 25 34 31 11 5 14 10 8 10 -8 1 -1 20 17 51 16 28 28 50 25 50 -2 0 1 14 6 30 6 17 15 30 19 30 5 0 7 14 5 30 -2 17 0 30 6 30 5 0 9 6 8 13 -2 6 3 39 10 71 13 60 17 215 7 264 -11 50 -19 107 -20 139 -1 20 -5 28 -11 23 -6 -5 -11 1 -12 16 -5 52 -7 63 -12 59 -5 -5 -41 71 -45 93 -1 8 -7 17 -12 20 -6 4 -19 22 -29 40 -11 17 -23 32 -27 32 -4 0 -5 8 -1 18 3 9 3 14 -2 10 -4 -4 -23 13 -42 37 -19 25 -38 45 -43 45 -6 0 -10 5 -10 11 0 5 5 7 12 3 7 -4 8 -3 4 4 -4 6 -14 8 -22 5 -13 -5 -15 -1 -9 18 4 16 3 20 -3 11 -7 -10 -17 -6 -46 21 -20 19 -36 33 -36 30 0 -2 -12 8 -27 22 -15 14 -31 25 -36 25 -4 0 -5 5 -1 12 5 8 2 9 -10 5 -10 -4 -19 -1 -22 8 -4 8 -10 12 -15 9 -10 -6 -65 23 -89 46 -8 9 -11 10 -6 3 5 -8 4 -13 -2 -13 -6 0 -14 5 -17 10 -4 6 -11 8 -16 5 -13 -9 -11 9 4 25 10 12 9 12 -4 2 -13 -10 -34 -9 -105 7 -126 28 -273 34 -354 16z m339 -40 c169 -40 301 -115 436 -250 116 -116 178 -216 225 -361 52 -163 60 -313 24 -472 -76 -331 -328 -593 -661 -684 -62 -17 -107 -22 -218 -22 -153 0 -208 10 -347 66 l-78 30 31 59 31 58 37 -18 c125 -64 332 -88 475 -57 208 47 387 168 501 341 48 73 99 205 116 300 14 83 6 234 -17 320 -75 281 -317 510 -602 570 -368 78 -764 -153 -886 -516 -42 -126 -46 -180 -46 -681 l0 -478 -62 0 -63 0 2 508 c2 548 4 573 58 718 49 132 125 244 231 345 134 126 315 214 496 239 80 11 234 4 317 -15z"/>
      <path d="M2895 2153 c-334 -76 -510 -442 -361 -747 32 -66 121 -164 186 -206 293 -188 684 -39 784 299 20 68 21 198 1 270 -45 171 -187 320 -353 371 -61 19 -201 26 -257 13z m175 -24 c25 -6 53 -10 62 -10 10 0 17 -3 17 -7 -3 -20 2 -25 11 -12 8 11 12 12 18 3 4 -7 17 -14 27 -16 29 -4 96 -52 87 -62 -4 -4 1 -5 10 -2 21 8 42 -15 27 -30 -8 -8 -7 -13 2 -18 8 -5 10 -4 5 3 -11 18 6 14 32 -7 12 -11 22 -27 22 -37 0 -9 3 -14 7 -11 10 10 55 -71 47 -85 -4 -7 -3 -8 4 -4 11 7 16 -12 15 -51 -1 -7 4 -10 10 -6 7 4 8 -6 4 -31 -3 -20 -2 -34 2 -31 14 8 17 -26 10 -110 -8 -97 -15 -130 -36 -161 -8 -13 -12 -24 -9 -24 3 0 -6 -18 -20 -40 -15 -22 -30 -37 -35 -34 -5 3 -6 -1 -3 -9 3 -8 -12 -28 -37 -48 -22 -19 -48 -41 -58 -49 -29 -27 -55 -45 -48 -33 4 6 -18 -4 -49 -22 -47 -29 -60 -32 -73 -22 -9 8 -12 8 -8 1 15 -25 -210 -27 -241 -2 -13 11 -14 11 -7 -2 7 -12 3 -11 -18 3 -14 9 -33 17 -40 17 -8 0 -20 7 -27 15 -7 8 -17 12 -23 8 -5 -3 -7 -1 -3 5 4 6 -3 12 -16 14 -15 2 -23 10 -23 23 0 13 -6 19 -17 17 -23 -4 -105 83 -134 142 -25 52 -65 181 -59 188 3 2 5 35 6 73 1 39 6 76 11 82 6 7 8 20 4 28 -3 10 -2 13 5 10 6 -4 9 1 7 11 -2 11 2 18 10 16 9 -2 10 3 4 15 -7 14 -1 29 22 62 17 25 38 47 45 49 9 3 11 0 6 -8 -5 -9 -4 -11 4 -6 9 6 9 11 1 21 -8 9 -4 17 15 29 14 9 24 22 22 29 -1 6 4 11 11 9 8 -1 11 2 7 8 -3 5 2 13 12 17 10 4 35 17 56 30 21 13 43 21 49 17 6 -4 8 -3 5 3 -4 6 18 17 51 26 96 28 143 31 212 16z"/>
      <path d="M2949 1770 c-60 -31 -89 -74 -89 -129 0 -26 7 -56 16 -69 8 -12 12 -27 8 -34 -4 -6 -3 -8 3 -5 6 4 21 -2 34 -12 87 -68 219 1 219 114 0 106 -105 180 -191 135z m86 -20 c22 0 72 -57 79 -90 18 -91 -81 -168 -162 -126 -61 31 -81 100 -49 162 19 37 75 68 105 58 8 -2 20 -4 27 -4z"/>
    </g>
  </svg>
  <defs>
    <linearGradient id="bg" x1="0" y1="0" x2="180" y2="180">
      <stop offset="0%" stop-color="#3b82f6"/>
      <stop offset="100%" stop-color="#2563eb"/>
    </linearGradient>
  </defs>
</svg>
